# 3ds Max Wavefront OBJ Exporter v0.97b - (c)2007 guruware
# File Created: 03.08.2016 11:33:51

mtllib spawner.mtl

#
# object target_spawner
#

v  -66.5547 0.0000 24.2239
v  -54.2559 0.0000 45.5261
v  -54.2559 6.4234 45.5261
v  -66.5547 6.4234 24.2239
v  -35.4130 0.0000 61.3371
v  -35.4130 6.4234 61.3371
v  -12.2988 0.0000 69.7500
v  -12.2988 6.4234 69.7500
v  12.2988 0.0000 69.7500
v  12.2988 6.4234 69.7500
v  35.4130 0.0000 61.3372
v  35.4130 6.4234 61.3372
v  54.2559 0.0000 45.5261
v  54.2559 6.4234 45.5261
v  66.5547 0.0000 24.2240
v  66.5547 6.4234 24.2240
v  -54.2559 12.8468 45.5261
v  -66.5547 12.8468 24.2239
v  -35.4130 12.8468 61.3371
v  -12.2988 12.8468 69.7500
v  12.2988 12.8468 69.7500
v  35.4130 12.8468 61.3372
v  54.2559 12.8468 45.5261
v  66.5547 12.8468 24.2240
v  -54.2559 19.2703 45.5261
v  -66.5547 19.2703 24.2239
v  -35.4130 19.2703 61.3371
v  -12.2988 19.2703 69.7500
v  12.2988 19.2703 69.7500
v  35.4130 19.2703 61.3372
v  54.2559 19.2703 45.5261
v  66.5547 19.2703 24.2240
v  -54.2559 25.6937 45.5261
v  -66.5547 25.6937 24.2239
v  -35.4130 25.6937 61.3371
v  -12.2988 25.6937 69.7500
v  12.2988 25.6937 69.7500
v  35.4130 25.6937 61.3372
v  54.2559 25.6937 45.5261
v  66.5547 25.6937 24.2240
v  -54.2559 32.1171 45.5261
v  -66.5547 32.1171 24.2239
v  -35.4130 32.1171 61.3371
v  -12.2988 32.1171 69.7500
v  12.2988 32.1171 69.7500
v  35.4130 32.1171 61.3372
v  54.2559 32.1171 45.5261
v  66.5547 32.1171 24.2240
# 48 vertices

vn -0.8660 0.0000 0.5000
vn -0.7660 0.0000 0.6428
vn -0.5000 0.0000 0.8660
vn -0.1736 0.0000 0.9848
vn 0.1736 0.0000 0.9848
vn 0.5000 0.0000 0.8660
vn 0.7660 0.0000 0.6428
vn 0.8660 0.0000 0.5000
# 8 vertex normals

vt 0.3056 0.0000 1.0000
vt 0.3611 0.0000 1.0000
vt 0.3611 0.2000 1.0000
vt 0.3056 0.2000 1.0000
vt 0.4167 0.0000 1.0000
vt 0.4167 0.2000 1.0000
vt 0.4722 0.0000 1.0000
vt 0.4722 0.2000 1.0000
vt 0.5278 0.0000 1.0000
vt 0.5278 0.2000 1.0000
vt 0.5833 0.0000 1.0000
vt 0.5833 0.2000 1.0000
vt 0.6389 0.0000 1.0000
vt 0.6389 0.2000 1.0000
vt 0.6944 0.0000 1.0000
vt 0.6944 0.2000 1.0000
vt 0.3611 0.4000 1.0000
vt 0.3056 0.4000 1.0000
vt 0.4167 0.4000 1.0000
vt 0.4722 0.4000 1.0000
vt 0.5278 0.4000 1.0000
vt 0.5833 0.4000 1.0000
vt 0.6389 0.4000 1.0000
vt 0.6944 0.4000 1.0000
vt 0.3611 0.6000 1.0000
vt 0.3056 0.6000 1.0000
vt 0.4167 0.6000 1.0000
vt 0.4722 0.6000 1.0000
vt 0.5278 0.6000 1.0000
vt 0.5833 0.6000 1.0000
vt 0.6389 0.6000 1.0000
vt 0.6944 0.6000 1.0000
vt 0.3611 0.8000 1.0000
vt 0.3056 0.8000 1.0000
vt 0.4167 0.8000 1.0000
vt 0.4722 0.8000 1.0000
vt 0.5278 0.8000 1.0000
vt 0.5833 0.8000 1.0000
vt 0.6389 0.8000 1.0000
vt 0.6944 0.8000 1.0000
vt 0.3611 1.0000 1.0000
vt 0.3056 1.0000 1.0000
vt 0.4167 1.0000 1.0000
vt 0.4722 1.0000 1.0000
vt 0.5278 1.0000 1.0000
vt 0.5833 1.0000 1.0000
vt 0.6389 1.0000 1.0000
vt 0.6944 1.0000 1.0000
# 48 texture coords

g target_spawner
usemtl wire_228184153
s 8
f 1/1/1 2/2/2 3/3/2 4/4/1 
f 2/2/2 5/5/3 6/6/3 3/3/2 
f 5/5/3 7/7/4 8/8/4 6/6/3 
f 7/7/4 9/9/5 10/10/5 8/8/4 
f 9/9/5 11/11/6 12/12/6 10/10/5 
f 11/11/6 13/13/7 14/14/7 12/12/6 
f 13/13/7 15/15/8 16/16/8 14/14/7 
f 4/4/1 3/3/2 17/17/2 18/18/1 
f 3/3/2 6/6/3 19/19/3 17/17/2 
f 6/6/3 8/8/4 20/20/4 19/19/3 
f 8/8/4 10/10/5 21/21/5 20/20/4 
f 10/10/5 12/12/6 22/22/6 21/21/5 
f 12/12/6 14/14/7 23/23/7 22/22/6 
f 14/14/7 16/16/8 24/24/8 23/23/7 
f 18/18/1 17/17/2 25/25/2 26/26/1 
f 17/17/2 19/19/3 27/27/3 25/25/2 
f 19/19/3 20/20/4 28/28/4 27/27/3 
f 20/20/4 21/21/5 29/29/5 28/28/4 
f 21/21/5 22/22/6 30/30/6 29/29/5 
f 22/22/6 23/23/7 31/31/7 30/30/6 
f 23/23/7 24/24/8 32/32/8 31/31/7 
f 26/26/1 25/25/2 33/33/2 34/34/1 
f 25/25/2 27/27/3 35/35/3 33/33/2 
f 27/27/3 28/28/4 36/36/4 35/35/3 
f 28/28/4 29/29/5 37/37/5 36/36/4 
f 29/29/5 30/30/6 38/38/6 37/37/5 
f 30/30/6 31/31/7 39/39/7 38/38/6 
f 31/31/7 32/32/8 40/40/8 39/39/7 
f 34/34/1 33/33/2 41/41/2 42/42/1 
f 33/33/2 35/35/3 43/43/3 41/41/2 
f 35/35/3 36/36/4 44/44/4 43/43/3 
f 36/36/4 37/37/5 45/45/5 44/44/4 
f 37/37/5 38/38/6 46/46/6 45/45/5 
f 38/38/6 39/39/7 47/47/7 46/46/6 
f 39/39/7 40/40/8 48/48/8 47/47/7 
# 35 polygons

