# Blender v2.74 (sub 0) OBJ File: ''
# www.blender.org
mtllib untitled-scene.mtl
o Cylinder
v 0.000000 -0.500000 0.050000
v 0.129400 -0.483000 0.050000
v 0.250000 -0.433000 0.050000
v 0.353600 -0.353600 0.050000
v 0.433000 -0.250000 0.050000
v 0.483000 -0.129400 0.050000
v 0.500000 -0.000000 0.050000
v 0.483000 0.129400 0.050000
v 0.433000 0.250000 0.050000
v 0.353600 0.353600 0.050000
v 0.250000 0.433000 0.050000
v 0.129400 0.483000 0.050000
v 0.000000 0.500000 0.050000
v -0.129400 0.483000 0.050000
v -0.250000 0.433000 0.050000
v -0.353600 0.353600 0.050000
v -0.433000 0.250000 0.050000
v -0.483000 0.129400 0.050000
v -0.500000 -0.000000 0.050000
v -0.483000 -0.129400 0.050000
v -0.433000 -0.250000 0.050000
v -0.353600 -0.353600 0.050000
v -0.250000 -0.433000 0.050000
v -0.129400 -0.483000 0.050000
v 0.000000 -0.500000 -0.050000
v 0.129400 -0.483000 -0.050000
v 0.250000 -0.433000 -0.050000
v 0.353600 -0.353600 -0.050000
v 0.433000 -0.250000 -0.050000
v 0.483000 -0.129400 -0.050000
v 0.500000 0.000000 -0.050000
v 0.483000 0.129400 -0.050000
v 0.433000 0.250000 -0.050000
v 0.353600 0.353600 -0.050000
v 0.250000 0.433000 -0.050000
v 0.129400 0.483000 -0.050000
v 0.000000 0.500000 -0.050000
v -0.129400 0.483000 -0.050000
v -0.250000 0.433000 -0.050000
v -0.353600 0.353600 -0.050000
v -0.433000 0.250000 -0.050000
v -0.483000 0.129400 -0.050000
v -0.500000 0.000000 -0.050000
v -0.483000 -0.129400 -0.050000
v -0.433000 -0.250000 -0.050000
v -0.353600 -0.353600 -0.050000
v -0.250000 -0.433000 -0.050000
v -0.129400 -0.483000 -0.050000
v 0.000000 -0.000000 0.050000
v 0.000000 0.000000 -0.050000
vt 0.000000 1.000000
vt 0.000000 0.000000
vt 0.041667 0.000000
vt 0.041667 1.000000
vt 0.083333 0.000000
vt 0.083333 1.000000
vt 0.125000 0.000000
vt 0.125000 1.000000
vt 0.166667 0.000000
vt 0.166667 1.000000
vt 0.208333 0.000000
vt 0.208333 1.000000
vt 0.250000 0.000000
vt 0.250000 1.000000
vt 0.291667 0.000000
vt 0.291667 1.000000
vt 0.333333 0.000000
vt 0.333333 1.000000
vt 0.375000 0.000000
vt 0.375000 1.000000
vt 0.416667 0.000000
vt 0.416667 1.000000
vt 0.458333 0.000000
vt 0.458333 1.000000
vt 0.500000 0.000000
vt 0.500000 1.000000
vt 0.541667 0.000000
vt 0.541667 1.000000
vt 0.583333 0.000000
vt 0.583333 1.000000
vt 0.625000 0.000000
vt 0.625000 1.000000
vt 0.666667 0.000000
vt 0.666667 1.000000
vt 0.708333 0.000000
vt 0.708333 1.000000
vt 0.750000 0.000000
vt 0.750000 1.000000
vt 0.791667 0.000000
vt 0.791667 1.000000
vt 0.833333 0.000000
vt 0.833333 1.000000
vt 0.875000 0.000000
vt 0.875000 1.000000
vt 0.916667 0.000000
vt 0.916667 1.000000
vt 0.958333 0.000000
vt 0.958333 1.000000
vt 1.000000 0.000000
vt 1.000000 1.000000
vn 0.000000 -1.000000 0.000000
vn 0.258800 -0.965900 0.000000
vn 0.499900 -0.866100 0.000000
vn 0.707100 -0.707100 0.000000
vn 0.866100 -0.499900 0.000000
vn 0.965900 -0.258800 0.000000
vn 1.000000 0.000000 0.000000
vn 0.965900 0.258800 0.000000
vn 0.866100 0.499900 0.000000
vn 0.707100 0.707100 0.000000
vn 0.499900 0.866100 0.000000
vn 0.258800 0.965900 0.000000
vn 0.000000 1.000000 0.000000
vn -0.258800 0.965900 0.000000
vn -0.499900 0.866100 0.000000
vn -0.707100 0.707100 0.000000
vn -0.866100 0.499900 0.000000
vn -0.965900 0.258800 0.000000
vn -1.000000 0.000000 0.000000
vn -0.965900 -0.258800 0.000000
vn -0.866100 -0.499900 0.000000
vn -0.707100 -0.707100 0.000000
vn -0.499900 -0.866100 0.000000
vn -0.258800 -0.965900 0.000000
vn 0.000000 -0.000000 1.000000
vn -0.000000 0.000000 -1.000000
usemtl CylinderDefault
s 1
f 1/1/1 25/2/1 26/3/2 2/4/2
f 2/4/2 26/3/2 27/5/3 3/6/3
f 3/6/3 27/5/3 28/7/4 4/8/4
f 4/8/4 28/7/4 29/9/5 5/10/5
f 5/10/5 29/9/5 30/11/6 6/12/6
f 6/12/6 30/11/6 31/13/7 7/14/7
f 7/14/7 31/13/7 32/15/8 8/16/8
f 8/16/8 32/15/8 33/17/9 9/18/9
f 9/18/9 33/17/9 34/19/10 10/20/10
f 10/20/10 34/19/10 35/21/11 11/22/11
f 11/22/11 35/21/11 36/23/12 12/24/12
f 12/24/12 36/23/12 37/25/13 13/26/13
f 13/26/13 37/25/13 38/27/14 14/28/14
f 14/28/14 38/27/14 39/29/15 15/30/15
f 15/30/15 39/29/15 40/31/16 16/32/16
f 16/32/16 40/31/16 41/33/17 17/34/17
f 17/34/17 41/33/17 42/35/18 18/36/18
f 18/36/18 42/35/18 43/37/19 19/38/19
f 19/38/19 43/37/19 44/39/20 20/40/20
f 20/40/20 44/39/20 45/41/21 21/42/21
f 21/42/21 45/41/21 46/43/22 22/44/22
f 22/44/22 46/43/22 47/45/23 23/46/23
f 23/46/23 47/45/23 48/47/24 24/48/24
f 24/48/24 48/47/24 25/49/1 1/50/1
f 1/1/25 2/4/25 49/2/25
f 2/4/25 3/6/25 49/2/25
f 3/6/25 4/8/25 49/2/25
f 4/8/25 5/10/25 49/2/25
f 5/10/25 6/12/25 49/2/25
f 6/12/25 7/14/25 49/2/25
f 7/14/25 8/16/25 49/2/25
f 8/16/25 9/18/25 49/2/25
f 9/18/25 10/20/25 49/2/25
f 10/20/25 11/22/25 49/2/25
f 11/22/25 12/24/25 49/2/25
f 12/24/25 13/26/25 49/2/25
f 13/26/25 14/28/25 49/2/25
f 14/28/25 15/30/25 49/2/25
f 15/30/25 16/32/25 49/2/25
f 16/32/25 17/34/25 49/2/25
f 17/34/25 18/36/25 49/2/25
f 18/36/25 19/38/25 49/2/25
f 19/38/25 20/40/25 49/2/25
f 20/40/25 21/42/25 49/2/25
f 21/42/25 22/44/25 49/2/25
f 22/44/25 23/46/25 49/2/25
f 23/46/25 24/48/25 49/2/25
f 24/48/25 1/50/25 49/2/25
f 26/3/26 25/2/26 50/1/26
f 27/5/26 26/3/26 50/1/26
f 28/7/26 27/5/26 50/1/26
f 29/9/26 28/7/26 50/1/26
f 30/11/26 29/9/26 50/1/26
f 31/13/26 30/11/26 50/1/26
f 32/15/26 31/13/26 50/1/26
f 33/17/26 32/15/26 50/1/26
f 34/19/26 33/17/26 50/1/26
f 35/21/26 34/19/26 50/1/26
f 36/23/26 35/21/26 50/1/26
f 37/25/26 36/23/26 50/1/26
f 38/27/26 37/25/26 50/1/26
f 39/29/26 38/27/26 50/1/26
f 40/31/26 39/29/26 50/1/26
f 41/33/26 40/31/26 50/1/26
f 42/35/26 41/33/26 50/1/26
f 43/37/26 42/35/26 50/1/26
f 44/39/26 43/37/26 50/1/26
f 45/41/26 44/39/26 50/1/26
f 46/43/26 45/41/26 50/1/26
f 47/45/26 46/43/26 50/1/26
f 48/47/26 47/45/26 50/1/26
f 25/49/26 48/47/26 50/1/26
