# 3ds Max Wavefront OBJ Exporter v0.97b - (c)2007 guruware
# File Created: 03.08.2016 15:39:39

#
# object canope
#

v  -88.8440 537.8406 -391.4651
v  -58.9021 549.4192 -240.9368
v  -3.0849 549.4192 -246.4343
v  -3.0850 537.8406 -399.9116
v  -171.3074 537.8406 -366.4501
v  -112.5742 549.4192 -224.6555
v  -247.3061 537.8406 -325.8280
v  -162.0387 549.4192 -198.2162
v  -313.9196 537.8406 -271.1597
v  -205.3947 549.4192 -162.6348
v  -368.5878 537.8406 -204.5463
v  -240.9760 549.4192 -119.2788
v  -409.2101 537.8406 -128.5475
v  -267.4154 549.4192 -69.8143
v  -434.2250 537.8406 -46.0840
v  -283.6967 549.4192 -16.1421
v  -442.6715 537.8406 39.6751
v  -289.1942 549.4192 39.6750
v  -434.2249 537.8406 125.4342
v  -283.6966 549.4192 95.4922
v  -409.2099 537.8406 207.8977
v  -267.4153 549.4192 149.1643
v  -368.5876 537.8406 283.8964
v  -240.9759 549.4192 198.6288
v  -313.9194 537.8406 350.5098
v  -205.3946 549.4192 241.9848
v  -171.3071 537.8406 445.8002
v  -112.5740 549.4192 304.0055
v  -162.0385 549.4192 277.5662
v  -247.3059 537.8406 405.1780
v  -88.8436 537.8406 470.8150
v  -58.9018 549.4192 320.2867
v  -3.0845 537.8406 479.2615
v  -3.0847 549.4192 325.7841
v  82.6746 537.8406 470.8149
v  52.7325 549.4192 320.2865
v  165.1380 537.8406 445.7997
v  106.4046 549.4192 304.0052
v  307.7501 537.8406 350.5092
v  199.2250 549.4192 241.9844
v  155.8691 549.4192 277.5659
v  241.1367 537.8406 405.1775
v  362.4183 537.8406 283.8957
v  234.8064 549.4192 198.6284
v  403.0403 537.8406 207.8969
v  261.2457 549.4192 149.1638
v  428.0552 537.8406 125.4334
v  277.5268 549.4192 95.4916
v  436.5016 537.8406 39.6743
v  283.0242 549.4192 39.6745
v  428.0549 537.8406 -46.0848
v  277.5267 549.4192 -16.1427
v  403.0398 537.8406 -128.5482
v  261.2453 549.4192 -69.8148
v  362.4175 537.8406 -204.5470
v  234.8059 549.4192 -119.2793
v  307.7491 537.8406 -271.1602
v  199.2244 549.4192 -162.6352
v  241.1356 537.8406 -325.8285
v  155.8683 549.4192 -198.2165
v  82.6732 537.8406 -391.4653
v  52.7316 549.4192 -240.9369
v  106.4038 549.4192 -224.6557
v  165.1367 537.8406 -366.4504
v  -120.9055 523.7319 -552.6493
v  -3.0850 523.7319 -564.2535
v  -234.1984 523.7319 -518.2822
v  -338.6096 523.7319 -462.4732
v  -430.1269 523.7319 -387.3669
v  -505.2333 523.7319 -295.8497
v  -561.0422 523.7319 -191.4384
v  -595.4093 523.7319 -78.1454
v  -607.0135 523.7319 39.6752
v  -595.4092 523.7319 157.4959
v  -561.0421 523.7319 270.7888
v  -505.2330 523.7319 375.2000
v  -430.1266 523.7319 466.7173
v  -338.6093 523.7319 541.8234
v  -234.1980 523.7319 597.6324
v  -120.9050 523.7319 631.9993
v  -3.0844 523.7319 643.6035
v  114.7363 523.7319 631.9991
v  228.0291 523.7319 597.6320
v  332.4404 523.7319 541.8228
v  423.9576 523.7319 466.7164
v  499.0637 523.7319 375.1990
v  554.8726 523.7319 270.7876
v  589.2395 523.7319 157.4947
v  589.2390 523.7319 -78.1466
v  600.8436 523.7319 39.6741
v  554.8718 523.7319 -191.4395
v  499.0626 523.7319 -295.8507
v  423.9562 523.7319 -387.3678
v  332.4388 523.7319 -462.4739
v  228.0274 523.7319 -518.2827
v  114.7344 523.7319 -552.6495
v  -3.0850 523.7319 -3371.6787
v  -668.6072 523.7319 -3306.1309
v  -1308.5537 523.7319 -3112.0049
v  -1898.3317 523.7319 -2796.7617
v  -2415.2769 523.7319 -2372.5161
v  -2839.5232 523.7319 -1855.5708
v  -3154.7661 523.7319 -1265.7924
v  -3348.8916 523.7319 -625.8452
v  -3414.4399 523.7319 39.6774
v  -3348.8914 523.7319 705.2001
v  -3154.7651 523.7319 1345.1470
v  -2839.5220 523.7319 1934.9254
v  -2415.2756 523.7319 2451.8701
v  -1898.3298 523.7319 2876.1147
v  -1308.5514 523.7319 3191.3584
v  -668.6042 523.7319 3385.4834
v  -3.0815 523.7319 3451.0313
v  662.4409 523.7319 3385.4819
v  1302.3877 523.7319 3191.3555
v  1892.1659 523.7319 2876.1113
v  2409.1104 523.7319 2451.8652
v  2833.3555 523.7319 1934.9197
v  3148.5984 523.7319 1345.1406
v  3342.7229 523.7319 705.1935
v  3408.2703 523.7319 39.6708
v  3342.7205 523.7319 -625.8515
v  3148.5938 523.7319 -1265.7985
v  2833.3494 523.7319 -1855.5763
v  2409.1030 523.7319 -2372.5205
v  1892.1569 523.7319 -2796.7656
v  1302.3777 523.7319 -3112.0078
v  662.4302 523.7319 -3306.1323
# 128 vertices

vn -0.0157 0.9967 -0.0792
vn -0.0147 0.9972 -0.0738
vn -0.0000 0.9972 -0.0752
vn -0.0000 0.9967 -0.0807
vn -0.0309 0.9967 -0.0746
vn -0.0288 0.9972 -0.0695
vn -0.0448 0.9967 -0.0671
vn -0.0418 0.9972 -0.0625
vn -0.0571 0.9967 -0.0571
vn -0.0532 0.9972 -0.0532
vn -0.0671 0.9967 -0.0448
vn -0.0625 0.9972 -0.0418
vn -0.0746 0.9967 -0.0309
vn -0.0695 0.9972 -0.0288
vn -0.0792 0.9967 -0.0157
vn -0.0738 0.9972 -0.0147
vn -0.0807 0.9967 0.0000
vn -0.0752 0.9972 0.0000
vn -0.0792 0.9967 0.0157
vn -0.0738 0.9972 0.0147
vn -0.0746 0.9967 0.0309
vn -0.0695 0.9972 0.0288
vn -0.0671 0.9967 0.0448
vn -0.0625 0.9972 0.0418
vn -0.0599 0.9966 0.0566
vn -0.0584 0.9971 0.0480
vn -0.0309 0.9967 0.0746
vn -0.0288 0.9972 0.0695
vn -0.0356 0.9971 0.0667
vn -0.0439 0.9966 0.0698
vn -0.0157 0.9967 0.0792
vn -0.0147 0.9972 0.0738
vn 0.0000 0.9967 0.0807
vn 0.0000 0.9972 0.0752
vn 0.0157 0.9967 0.0792
vn 0.0147 0.9972 0.0738
vn 0.0294 0.9966 0.0770
vn 0.0219 0.9971 0.0723
vn 0.0571 0.9967 0.0571
vn 0.0532 0.9972 0.0532
vn 0.0480 0.9971 0.0584
vn 0.0477 0.9966 0.0672
vn 0.0671 0.9967 0.0448
vn 0.0625 0.9972 0.0418
vn 0.0746 0.9967 0.0309
vn 0.0695 0.9972 0.0288
vn 0.0768 0.9969 0.0184
vn 0.0738 0.9972 0.0147
vn 0.0790 0.9969 -0.0030
vn 0.0752 0.9972 -0.0000
vn 0.0792 0.9967 -0.0157
vn 0.0738 0.9972 -0.0147
vn 0.0746 0.9967 -0.0309
vn 0.0695 0.9972 -0.0288
vn 0.0671 0.9967 -0.0448
vn 0.0625 0.9972 -0.0418
vn 0.0571 0.9967 -0.0571
vn 0.0532 0.9972 -0.0532
vn 0.0477 0.9966 -0.0672
vn 0.0480 0.9971 -0.0584
vn 0.0157 0.9967 -0.0792
vn 0.0147 0.9972 -0.0738
vn 0.0219 0.9971 -0.0723
vn 0.0294 0.9966 -0.0770
vn -0.0167 0.9963 -0.0839
vn -0.0000 0.9963 -0.0855
vn -0.0327 0.9963 -0.0790
vn -0.0475 0.9963 -0.0711
vn -0.0605 0.9963 -0.0605
vn -0.0711 0.9963 -0.0475
vn -0.0790 0.9963 -0.0327
vn -0.0839 0.9963 -0.0167
vn -0.0855 0.9963 0.0000
vn -0.0839 0.9963 0.0167
vn -0.0790 0.9963 0.0327
vn -0.0711 0.9963 0.0475
vn -0.0605 0.9963 0.0605
vn -0.0475 0.9963 0.0711
vn -0.0327 0.9963 0.0790
vn -0.0167 0.9963 0.0839
vn 0.0000 0.9963 0.0855
vn 0.0167 0.9963 0.0839
vn 0.0327 0.9963 0.0790
vn 0.0475 0.9963 0.0711
vn 0.0605 0.9963 0.0605
vn 0.0711 0.9963 0.0475
vn 0.0790 0.9963 0.0327
vn 0.0822 0.9963 0.0249
vn 0.0839 0.9963 -0.0167
vn 0.0855 0.9963 -0.0084
vn 0.0790 0.9963 -0.0327
vn 0.0711 0.9963 -0.0475
vn 0.0605 0.9963 -0.0605
vn 0.0475 0.9963 -0.0711
vn 0.0327 0.9963 -0.0790
vn 0.0167 0.9963 -0.0839
vn 0.0000 1.0000 -0.0000
vn 0.0855 0.9963 0.0084
vn -0.0480 0.9971 0.0584
vn 0.0356 0.9971 0.0667
vn 0.0356 0.9971 -0.0667
# 101 vertex normals

vt 0.0313 0.7500 0.0000
vt 0.0313 0.8125 0.0000
vt 0.0000 0.8125 0.0000
vt 0.0000 0.7500 0.0000
vt 0.0625 0.7500 0.0000
vt 0.0625 0.8125 0.0000
vt 0.0938 0.7500 0.0000
vt 0.0938 0.8125 0.0000
vt 0.1250 0.7500 0.0000
vt 0.1250 0.8125 0.0000
vt 0.1563 0.7500 0.0000
vt 0.1563 0.8125 0.0000
vt 0.1875 0.7500 0.0000
vt 0.1875 0.8125 0.0000
vt 0.2187 0.7500 0.0000
vt 0.2187 0.8125 0.0000
vt 0.2500 0.7500 0.0000
vt 0.2500 0.8125 0.0000
vt 0.2812 0.7500 0.0000
vt 0.2812 0.8125 0.0000
vt 0.3125 0.7500 0.0000
vt 0.3125 0.8125 0.0000
vt 0.3437 0.7500 0.0000
vt 0.3437 0.8125 0.0000
vt 0.3750 0.7500 0.0000
vt 0.3750 0.8125 0.0000
vt 0.4375 0.7500 0.0000
vt 0.4375 0.8125 0.0000
vt 0.4063 0.8125 0.0000
vt 0.4063 0.7500 0.0000
vt 0.4688 0.7500 0.0000
vt 0.4688 0.8125 0.0000
vt 0.5000 0.7500 0.0000
vt 0.5000 0.8125 0.0000
vt 0.5313 0.7500 0.0000
vt 0.5313 0.8125 0.0000
vt 0.5625 0.7500 0.0000
vt 0.5625 0.8125 0.0000
vt 0.6250 0.7500 0.0000
vt 0.6250 0.8125 0.0000
vt 0.5938 0.8125 0.0000
vt 0.5938 0.7500 0.0000
vt 0.6563 0.7500 0.0000
vt 0.6563 0.8125 0.0000
vt 0.6875 0.7500 0.0000
vt 0.6875 0.8125 0.0000
vt 0.7188 0.7500 0.0000
vt 0.7188 0.8125 0.0000
vt 0.7500 0.7500 0.0000
vt 0.7500 0.8125 0.0000
vt 0.7813 0.7500 0.0000
vt 0.7813 0.8125 0.0000
vt 0.8125 0.7500 0.0000
vt 0.8125 0.8125 0.0000
vt 0.8438 0.7500 0.0000
vt 0.8438 0.8125 0.0000
vt 0.8750 0.7500 0.0000
vt 0.8750 0.8125 0.0000
vt 0.9063 0.7500 0.0000
vt 0.9063 0.8125 0.0000
vt 0.9688 0.7500 0.0000
vt 0.9688 0.8125 0.0000
vt 0.9375 0.8125 0.0000
vt 0.9375 0.7500 0.0000
vt 1.0000 0.7500 0.0000
vt 1.0000 0.8125 0.0000
vt 0.0313 0.6875 0.0000
vt 0.0000 0.6875 0.0000
vt 0.0625 0.6875 0.0000
vt 0.0938 0.6875 0.0000
vt 0.1250 0.6875 0.0000
vt 0.1563 0.6875 0.0000
vt 0.1875 0.6875 0.0000
vt 0.2187 0.6875 0.0000
vt 0.2500 0.6875 0.0000
vt 0.2812 0.6875 0.0000
vt 0.3125 0.6875 0.0000
vt 0.3437 0.6875 0.0000
vt 0.3750 0.6875 0.0000
vt 0.4063 0.6875 0.0000
vt 0.4375 0.6875 0.0000
vt 0.4688 0.6875 0.0000
vt 0.5000 0.6875 0.0000
vt 0.5313 0.6875 0.0000
vt 0.5625 0.6875 0.0000
vt 0.5938 0.6875 0.0000
vt 0.6250 0.6875 0.0000
vt 0.6563 0.6875 0.0000
vt 0.6875 0.6875 0.0000
vt 0.7188 0.6875 0.0000
vt 0.7813 0.6875 0.0000
vt 0.7500 0.6875 0.0000
vt 0.8125 0.6875 0.0000
vt 0.8438 0.6875 0.0000
vt 0.8750 0.6875 0.0000
vt 0.9063 0.6875 0.0000
vt 0.9375 0.6875 0.0000
vt 0.9688 0.6875 0.0000
vt 1.0000 0.6875 0.0000
# 99 texture coords

g canope
s 1
f 1/1/1 2/2/2 3/3/3 4/4/4 
f 5/5/5 6/6/6 2/2/2 1/1/1 
f 7/7/7 8/8/8 6/6/6 5/5/5 
f 9/9/9 10/10/10 8/8/8 7/7/7 
f 11/11/11 12/12/12 10/10/10 9/9/9 
f 13/13/13 14/14/14 12/12/12 11/11/11 
f 15/15/15 16/16/16 14/14/14 13/13/13 
f 17/17/17 18/18/18 16/16/16 15/15/15 
f 19/19/19 20/20/20 18/18/18 17/17/17 
f 21/21/21 22/22/22 20/20/20 19/19/19 
f 23/23/23 24/24/24 22/22/22 21/21/21 
f 25/25/25 26/26/26 24/24/24 23/23/23 
f 27/27/27 28/28/28 29/29/29 30/30/30 
f 31/31/31 32/32/32 28/28/28 27/27/27 
f 33/33/33 34/34/34 32/32/32 31/31/31 
f 35/35/35 36/36/36 34/34/34 33/33/33 
f 37/37/37 38/38/38 36/36/36 35/35/35 
f 39/39/39 40/40/40 41/41/41 42/42/42 
f 43/43/43 44/44/44 40/40/40 39/39/39 
f 45/45/45 46/46/46 44/44/44 43/43/43 
f 47/47/47 48/48/48 46/46/46 45/45/45 
f 49/49/49 50/50/50 48/48/48 47/47/47 
f 51/51/51 52/52/52 50/50/50 49/49/49 
f 53/53/53 54/54/54 52/52/52 51/51/51 
f 55/55/55 56/56/56 54/54/54 53/53/53 
f 57/57/57 58/58/58 56/56/56 55/55/55 
f 59/59/59 60/60/60 58/58/58 57/57/57 
f 61/61/61 62/62/62 63/63/63 64/64/64 
f 4/65/4 3/66/3 62/62/62 61/61/61 
f 65/67/65 1/1/1 4/4/4 66/68/66 
f 67/69/67 5/5/5 1/1/1 65/67/65 
f 68/70/68 7/7/7 5/5/5 67/69/67 
f 69/71/69 9/9/9 7/7/7 68/70/68 
f 70/72/70 11/11/11 9/9/9 69/71/69 
f 71/73/71 13/13/13 11/11/11 70/72/70 
f 72/74/72 15/15/15 13/13/13 71/73/71 
f 73/75/73 17/17/17 15/15/15 72/74/72 
f 74/76/74 19/19/19 17/17/17 73/75/73 
f 75/77/75 21/21/21 19/19/19 74/76/74 
f 76/78/76 23/23/23 21/21/21 75/77/75 
f 77/79/77 25/25/25 23/23/23 76/78/76 
f 78/80/78 30/30/30 25/25/25 77/79/77 
f 79/81/79 27/27/27 30/30/30 78/80/78 
f 80/82/80 31/31/31 27/27/27 79/81/79 
f 81/83/81 33/33/33 31/31/31 80/82/80 
f 82/84/82 35/35/35 33/33/33 81/83/81 
f 83/85/83 37/37/37 35/35/35 82/84/82 
f 84/86/84 42/42/42 37/37/37 83/85/83 
f 85/87/85 39/39/39 42/42/42 84/86/84 
f 86/88/86 43/43/43 39/39/39 85/87/85 
f 87/89/87 45/45/45 43/43/43 86/88/86 
f 88/90/88 47/47/47 45/45/45 87/89/87 
f 89/91/89 51/51/51 49/49/49 90/92/90 
f 91/93/91 53/53/53 51/51/51 89/91/89 
f 92/94/92 55/55/55 53/53/53 91/93/91 
f 93/95/93 57/57/57 55/55/55 92/94/92 
f 94/96/94 59/59/59 57/57/57 93/95/93 
f 95/97/95 64/64/64 59/59/59 94/96/94 
f 96/98/96 61/61/61 64/64/64 95/97/95 
f 66/99/66 4/65/4 61/61/61 96/98/96 
s off
f 65/67/97 66/68/97 97/68/97 98/67/97 
f 67/69/97 65/67/97 98/67/97 99/69/97 
f 68/70/97 67/69/97 99/69/97 100/70/97 
f 69/71/97 68/70/97 100/70/97 101/71/97 
f 70/72/97 69/71/97 101/71/97 102/72/97 
f 71/73/97 70/72/97 102/72/97 103/73/97 
f 72/74/97 71/73/97 103/73/97 104/74/97 
f 73/75/97 72/74/97 104/74/97 105/75/97 
f 74/76/97 73/75/97 105/75/97 106/76/97 
f 75/77/97 74/76/97 106/76/97 107/77/97 
f 76/78/97 75/77/97 107/77/97 108/78/97 
f 77/79/97 76/78/97 108/78/97 109/79/97 
f 78/80/97 77/79/97 109/79/97 110/80/97 
f 79/81/97 78/80/97 110/80/97 111/81/97 
f 80/82/97 79/81/97 111/81/97 112/82/97 
f 81/83/97 80/82/97 112/82/97 113/83/97 
f 82/84/97 81/83/97 113/83/97 114/84/97 
f 83/85/97 82/84/97 114/84/97 115/85/97 
f 84/86/97 83/85/97 115/85/97 116/86/97 
f 85/87/97 84/86/97 116/86/97 117/87/97 
f 86/88/97 85/87/97 117/87/97 118/88/97 
f 87/89/97 86/88/97 118/88/97 119/89/97 
f 88/90/97 87/89/97 119/89/97 120/90/97 
f 90/92/97 88/90/97 120/90/97 121/92/97 
f 89/91/97 90/92/97 121/92/97 122/91/97 
f 91/93/97 89/91/97 122/91/97 123/93/97 
f 92/94/97 91/93/97 123/93/97 124/94/97 
f 93/95/97 92/94/97 124/94/97 125/95/97 
f 94/96/97 93/95/97 125/95/97 126/96/97 
f 95/97/97 94/96/97 126/96/97 127/97/97 
f 96/98/97 95/97/97 127/97/97 128/98/97 
f 66/99/97 96/98/97 128/98/97 97/99/97 
f 88/90/98 90/92/98 49/49/98 47/47/98 
f 25/25/99 30/30/99 29/30/99 26/25/99 
f 37/37/100 42/42/100 41/42/100 38/37/100 
f 59/59/101 64/64/101 63/64/101 60/59/101 
# 96 polygons

